#N canvas 1307 420 925 542 12;
#X obj 166 66 oscparse;
#X obj 166 35 netreceive -u -b 8000;
#X listbox 166 154 32 0 0 0 - - - 0;
#X obj 166 92 list trim;
#X listbox 214 183 32 0 0 0 - - - 0;
#X listbox 262 210 11 0 0 0 - - - 0;
#X listbox 312 252 29 0 0 0 - - - 0;
#X listbox 359 286 42 0 0 0 - - - 0;
#X obj 166 120 route acc gyro mag ypr SceneRotator;
#X obj 359 213 route quaternions;
#X connect 0 0 3 0;
#X connect 1 0 0 0;
#X connect 3 0 8 0;
#X connect 8 0 2 0;
#X connect 8 1 4 0;
#X connect 8 2 5 0;
#X connect 8 3 6 0;
#X connect 8 4 9 0;
#X connect 9 0 7 0;
